PathFileType	4	(X/Y/Z)	/Users/niels/Desktop/University/Third Semester/Perception and Action/Exam/Gymnastics Motion Tracking/Code for Gym Tracking/Analyzed Data/Webcam_Backflip/id2001_1_trajectory_Sports2D/id2001_1_trajectory_Sports2D_px_person00.trc
DataRate	CameraRate	NumFrames	NumMarkers	Units	OrigDataRate	OrigDataStartFrame	OrigNumFrames
29.888059701492537	29.888059701492537	8	22	m	29.888059701492537	100	268
Frame#	Time	Hip			RHip			RKnee			RAnkle			RBigToe			RSmallToe			RHeel			LHip			LKnee			LAnkle			LBigToe			LSmallToe			LHeel			Neck			Head			Nose			RShoulder			RElbow			RWrist			LShoulder			LElbow			LWrist		
		X1	Y1	Z1	X2	Y2	Z2	X3	Y3	Z3	X4	Y4	Z4	X5	Y5	Z5	X6	Y6	Z6	X7	Y7	Z7	X8	Y8	Z8	X9	Y9	Z9	X10	Y10	Z10	X11	Y11	Z11	X12	Y12	Z12	X13	Y13	Z13	X14	Y14	Z14	X15	Y15	Z15	X16	Y16	Z16	X17	Y17	Z17	X18	Y18	Z18	X19	Y19	Z19	X20	Y20	Z20	X21	Y21	Z21	X22	Y22	Z22
100	3.3458177278402	0.9684824539704537	-0.7205950687380576	0.0	0.9614363833838316	-0.7204525780776697	0.0	0.9812556362097282	-1.061127066334854	0.0	1.0322312258233786	-1.0951401816258164	0.0	0.5691812488699224	-1.1932262674493406	0.0	1.4475584957322718	-1.0994004488723321	0.0	0.5691808005950253	-0.9706764443672309	0.0	0.9808614874700696	-0.7268256864609551	0.0	0.9929194272142723	-1.0583951443045356	0.0	0.9512708215613641	-1.0872777262436542	0.0	1.4962346162618645	-0.8226723612854331	0.0	1.5162546399202588	-0.8310659170787764	0.0	0.6639538226030712	-0.979577411000967	0.0	1.0442428020950087	-0.27876308796016724	0.0	1.163718039407425	-0.10893669316382187	0.0	1.1684003878202738	-0.23343243043209247	0.0	1.0188063332452222	-0.28649137783757295	0.0	1.0943620997365566	-0.48569968384806805	0.0	1.2786369097658645	-0.6285249752327522	0.0	1.0237078172099225	-0.3176165489443103	0.0	1.0718839296185771	-0.5539247344894092	0.0	1.1913396649095052	-0.664708206784689	0.0
101	3.379275905118602	0.9666928729546501	-0.7214316823691146	0.0	0.963294961847796	-0.7226911554675345	0.0	0.9773644944270985	-1.0604063209837324	0.0	1.0323389162450909	-1.0950683382947621	0.0	0.5691824820808197	-1.1932261857665103	0.0	1.4475583794882085	-1.0994004424567967	0.0	0.5691817907478779	-0.970676617052332	0.0	0.974514676684626	-0.7282478521062253	0.0	0.9836788490510259	-1.0580073603555609	0.0	0.9512547051828232	-1.0872359446286624	0.0	1.4962346153291541	-0.8226723591382169	0.0	1.51625464209033	-0.8310659155317314	0.0	0.6639543380711006	-0.9795775787213806	0.0	1.0493947026863817	-0.2794401554528097	0.0	1.1739445957081645	-0.11250469678028982	0.0	1.1756268771934766	-0.23707745309829142	0.0	1.0284133277796321	-0.29048656698891584	0.0	1.0676048664779674	-0.5017883950195791	0.0	1.2336082384197562	-0.6795137216135587	0.0	1.0247547039135676	-0.3146721848116471	0.0	1.0493652585602584	-0.5566628865812772	0.0	1.1594369134055582	-0.7045808522847908	0.0
102	3.4127340823970043	0.9673243897975446	-0.7230128833100862	0.0	0.9658164179585944	-0.7262780006639529	0.0	0.9760094920735751	-1.0595189419020943	0.0	1.0323520625571505	-1.0950267451492457	0.0	0.5691836168065837	-1.1932259978571167	0.0	1.4475582379390726	-1.099400393036329	0.0	0.569182749941805	-0.9706767221983656	0.0	0.9708966655383179	-0.7307071633503625	0.0	0.9744384063839878	-1.057276792593427	0.0	0.9512325912584363	-1.0872123111387384	0.0	1.4962346155609965	-0.8226723566446739	0.0	1.5162546451128471	-0.8310659133769771	0.0	0.6639547973426658	-0.9795777031607283	0.0	1.053972314800759	-0.2789857090460692	0.0	1.182346743675754	-0.11482009583943274	0.0	1.1818207158292935	-0.2394474258019923	0.0	1.035942615763057	-0.2928053117374695	0.0	1.0385270693664992	-0.5103545894745245	0.0	1.1812632463263806	-0.71572284706492	0.0	1.0280195199005884	-0.31214644683115156	0.0	1.031622135357142	-0.5541841158441538	0.0	1.1312780965619904	-0.7304052885430065	0.0
103	3.446192259675406	0.9709571134752079	-0.7258968878174014	0.0	0.9693243737330801	-0.7314657802905958	0.0	0.9770097408358136	-1.0590831282303197	0.0	1.0323153686265394	-1.095002125228145	0.0	0.5691837951179894	-1.193225672718966	0.0	1.4475581276104286	-1.0994002717405413	0.0	0.5691830415981016	-0.9706766005075812	0.0	0.9717446779811548	-0.7346227339419462	0.0	0.9667125659247412	-1.056796640109475	0.0	0.9512086730530778	-1.087200922778161	0.0	1.496234618462394	-0.8226723549420281	0.0	1.5162546482247705	-0.831065911158485	0.0	0.6639548182920455	-0.9795776416424378	0.0	1.058120769974427	-0.27807540872022324	0.0	1.188940348763445	-0.115926987836893	0.0	1.1869996124647613	-0.2406359037527924	0.0	1.0408584895823456	-0.2931016671525694	0.0	1.008632542991621	-0.5117215809304552	0.0	1.123235207650682	-0.7369707156590518	0.0	1.0340749765767545	-0.31066518282741934	0.0	1.0197009795360201	-0.5476414010411615	0.0	1.1047221493506019	-0.7436044084098259	0.0
104	3.479650436953808	0.9775163635850627	-0.73001624634835	0.0	0.974020646733714	-0.7378116694079615	0.0	0.9800275984347542	-1.0594891714598975	0.0	1.03226286107755	-1.0949848050967665	0.0	0.5691815504354266	-1.1932252264472765	0.0	1.447558165027062	-1.09940005561189	0.0	0.5691815478978339	-0.9706760113220684	0.0	0.9780227150339369	-0.7398573191295456	0.0	0.9620220044146248	-1.0570146236314426	0.0	0.9511832256431271	-1.0871946406046233	0.0	1.4962346259342607	-0.8226723562682152	0.0	1.5162546495192195	-0.8310659102356716	0.0	0.6639537625043126	-0.9795771700547533	0.0	1.0619014027759142	-0.27739315190692065	0.0	1.1940123369175821	-0.11620359522282428	0.0	1.1913412517157003	-0.24094364970399632	0.0	1.0431500327330583	-0.29163397369962946	0.0	0.9794753609991375	-0.5070363859654936	0.0	1.0615201841949347	-0.7448348432518206	0.0	1.042539270977537	-0.3107719968155277	0.0	1.0125249187309422	-0.5389329229299511	0.0	1.0768249929288018	-0.7472637196662493	0.0
105	3.5131086142322103	0.985811241383862	-0.7344618597614949	0.0	0.9795468744607599	-0.7442628523640885	0.0	0.9846844172103678	-1.060775590404679	0.0	1.0322213602483155	-1.0949739099433191	0.0	0.5691749054072207	-1.193224778158097	0.0	1.4475585358956025	-1.0993997510223545	0.0	0.5691767169157307	-0.9706746753073748	0.0	0.9883176332387793	-0.7456411006372977	0.0	0.9614429257699777	-1.0581374078935981	0.0	0.95115679997481	-1.0871877277552597	0.0	1.4962346395940922	-0.8226723640648222	0.0	1.5162546455647934	-0.8310659130547843	0.0	0.663950787877383	-0.9795760134630053	0.0	1.0653954781513149	-0.27741564385222356	0.0	1.1981456330598919	-0.11620678049065218	0.0	1.1952958722751577	-0.24082700246953376	0.0	1.0435431075248562	-0.2893126250142362	0.0	0.9520958850685157	-0.4983341218944042	0.0	0.99835192562768	-0.741981530377631	0.0	1.0519400047348668	-0.31266032483085604	0.0	1.007002709297016	-0.5304447644878639	0.0	1.0449789067695543	-0.744274090440997	0.0
106	3.546566791510612	0.993716640879001	-0.7378817850167585	0.0	0.9848263672453352	-0.7495436663099398	0.0	0.9903497155187213	-1.0626938882255201	0.0	1.0322173755689434	-1.09498049537277	0.0	0.5691619421583006	-1.1932246181907538	0.0	1.447559472129568	-1.0993994312289008	0.0	0.5691669629074656	-0.9706724029960363	0.0	0.999319793209698	-0.7507745424448693	0.0	0.9652673188451344	-1.0600689437099622	0.0	0.951134662292701	-1.0871774632857714	0.0	1.4962346593155622	-0.8226723824397091	0.0	1.5162546314798653	-0.8310659230959381	0.0	0.6639451090835043	-0.9795739535251111	0.0	1.0687875216222396	-0.27828650831730706	0.0	1.2022762364471133	-0.1164698258167981	0.0	1.1994981155150217	-0.24079183195047232	0.0	1.0433102537957935	-0.28714246703536983	0.0	0.9267345929204376	-0.48743505293369854	0.0	0.9358935719342163	-0.7309247672719286	0.0	1.0606913833291727	-0.3160466296356768	0.0	0.9993594326515879	-0.5241844767155309	0.0	1.0074099613080258	-0.7366735493040807	0.0
107	3.580024968789014	0.9992142092445001	-0.7393436539844759	0.0	0.9885699136671344	-0.7527735962918989	0.0	0.9959791889990968	-1.0648381452202813	0.0	1.0322820871648457	-1.0950284940154031	0.0	0.5691421433575334	-1.1932252615672816	0.0	1.4475611659908107	-1.0993992836322166	0.0	0.5691516581562159	-0.9706693471203784	0.0	1.0080807829785066	-0.7542204148343603	0.0	0.9724611725285061	-1.062384928186021	0.0	0.9511309902930702	-1.0871656012881554	0.0	1.4962346808305573	-0.8226724144297266	0.0	1.5162546020604726	-0.8310659440690408	0.0	0.6639365914388051	-0.9795710517268174	0.0	1.0723731806573427	-0.279721263896459	0.0	1.2075451089748457	-0.11741524575404362	0.0	1.204477569138219	-0.24134669575353496	0.0	1.0436733011085892	-0.2855222164519336	0.0	0.9033150288704185	-0.4750119952259637	0.0	0.8763959743620031	-0.7134209541771093	0.0	1.06805247743732	-0.3202062125426218	0.0	0.9869623772638945	-0.5209084451214478	0.0	0.9649055015305731	-0.7258261675887046	0.0
